TITLE ""
FILE "Disc5Track28.mp3" MP3
  TRACK 01 AUDIO
    TITLE "Disc5Track28_01"
    INDEX 01 00:00:00
  TRACK 02 AUDIO
    TITLE "Disc5Track28_02"
    INDEX 01 00:01:00
  TRACK 03 AUDIO
    TITLE "Disc5Track28_03"
    INDEX 01 00:02:64
  TRACK 04 AUDIO
    TITLE "Disc5Track28_04"
    INDEX 01 00:04:02
  TRACK 05 AUDIO
    TITLE "Disc5Track28_05"
    INDEX 01 00:06:74
  TRACK 06 AUDIO
    TITLE "Disc5Track28_06"
    INDEX 01 00:07:30
  TRACK 07 AUDIO
    TITLE "Disc5Track28_07"
    INDEX 01 00:08:51
  TRACK 08 AUDIO
    TITLE "Disc5Track28_08"
    INDEX 01 00:09:60
  TRACK 09 AUDIO
    TITLE "Disc5Track28_09"
    INDEX 01 00:11:02
  TRACK 10 AUDIO
    TITLE "Disc5Track28_10"
    INDEX 01 00:14:40
  TRACK 11 AUDIO
    TITLE "Disc5Track28_11"
    INDEX 01 00:15:00
  TRACK 12 AUDIO
    TITLE "Disc5Track28_12"
    INDEX 01 00:16:23
  TRACK 13 AUDIO
    TITLE "Disc5Track28_13"
    INDEX 01 00:17:34
  TRACK 14 AUDIO
    TITLE "Disc5Track28_14"
    INDEX 01 00:18:55
  TRACK 15 AUDIO
    TITLE "Disc5Track28_15"
    INDEX 01 00:21:50
  TRACK 16 AUDIO
    TITLE "Disc5Track28_16"
    INDEX 01 00:22:08
  TRACK 17 AUDIO
    TITLE "Disc5Track28_17"
    INDEX 01 00:23:41
  TRACK 18 AUDIO
    TITLE "Disc5Track28_18"
    INDEX 01 00:25:63
  TRACK 19 AUDIO
    TITLE "Disc5Track28_19"
    INDEX 01 00:27:19
  TRACK 20 AUDIO
    TITLE "Disc5Track28_20"
    INDEX 01 00:31:05
  TRACK 21 AUDIO
    TITLE "Disc5Track28_21"
    INDEX 01 00:31:36
  TRACK 22 AUDIO
    TITLE "Disc5Track28_22"
    INDEX 01 00:32:59
  TRACK 23 AUDIO
    TITLE "Disc5Track28_23"
    INDEX 01 00:34:29
  TRACK 24 AUDIO
    TITLE "Disc5Track28_24"
    INDEX 01 00:35:52
  TRACK 25 AUDIO
    TITLE "Disc5Track28_25"
    INDEX 01 00:39:61
  TRACK 26 AUDIO
    TITLE "Disc5Track28_26"
    INDEX 01 00:40:22
  TRACK 27 AUDIO
    TITLE "Disc5Track28_27"
    INDEX 01 00:41:48
  TRACK 28 AUDIO
    TITLE "Disc5Track28_28"
    INDEX 01 00:42:48
  TRACK 29 AUDIO
    TITLE "Disc5Track28_29"
    INDEX 01 00:43:73
  TRACK 30 AUDIO
    TITLE "Disc5Track28_30"
    INDEX 01 00:47:04
  TRACK 31 AUDIO
    TITLE "Disc5Track28_31"
    INDEX 01 00:47:35
  TRACK 32 AUDIO
    TITLE "Disc5Track28_32"
    INDEX 01 00:48:66
  TRACK 33 AUDIO
    TITLE "Disc5Track28_33"
    INDEX 01 00:50:49
  TRACK 34 AUDIO
    TITLE "Disc5Track28_34"
    INDEX 01 00:52:01
  TRACK 35 AUDIO
    TITLE "Disc5Track28_35"
    INDEX 01 00:53:69
  TRACK 36 AUDIO
    TITLE "Disc5Track28_36"
    INDEX 01 00:54:24
  TRACK 37 AUDIO
    TITLE "Disc5Track28_37"
    INDEX 01 00:55:52
  TRACK 38 AUDIO
    TITLE "Disc5Track28_38"
    INDEX 01 00:57:61
  TRACK 39 AUDIO
    TITLE "Disc5Track28_39"
    INDEX 01 00:59:15
  TRACK 40 AUDIO
    TITLE "Disc5Track28_40"
    INDEX 01 01:02:72
  TRACK 41 AUDIO
    TITLE "Disc5Track28_41"
    INDEX 01 01:03:28
  TRACK 42 AUDIO
    TITLE "Disc5Track28_42"
    INDEX 01 01:04:59
  TRACK 43 AUDIO
    TITLE "Disc5Track28_43"
    INDEX 01 01:06:35
  TRACK 44 AUDIO
    TITLE "Disc5Track28_44"
    INDEX 01 01:07:65
  TRACK 45 AUDIO
    TITLE "Disc5Track28_45"
    INDEX 01 01:08:26
  TRACK 46 AUDIO
    TITLE "Disc5Track28_46"
    INDEX 01 01:09:47
  TRACK 47 AUDIO
    TITLE "Disc5Track28_47"
    INDEX 01 01:10:56
  TRACK 48 AUDIO
    TITLE "Disc5Track28_48"
    INDEX 01 01:12:04
  TRACK 49 AUDIO
    TITLE "Disc5Track28_49"
    INDEX 01 01:14:66
  TRACK 50 AUDIO
    TITLE "Disc5Track28_50"
    INDEX 01 01:15:24
  TRACK 51 AUDIO
    TITLE "Disc5Track28_51"
    INDEX 01 01:16:53
  TRACK 52 AUDIO
    TITLE "Disc5Track28_52"
    INDEX 01 01:18:55
  TRACK 53 AUDIO
    TITLE "Disc5Track28_53"
    INDEX 01 01:20:11
  TRACK 54 AUDIO
    TITLE "Disc5Track28_54"
    INDEX 01 01:20:39
  TRACK 55 AUDIO
    TITLE "Disc5Track28_55"
    INDEX 01 01:22:06
  TRACK 56 AUDIO
    TITLE "Disc5Track28_56"
    INDEX 01 01:24:23
  TRACK 57 AUDIO
    TITLE "Disc5Track28_57"
    INDEX 01 01:25:63
  TRACK 58 AUDIO
    TITLE "Disc5Track28_58"
    INDEX 01 01:28:58
  TRACK 59 AUDIO
    TITLE "Disc5Track28_59"
    INDEX 01 01:29:16
  TRACK 60 AUDIO
    TITLE "Disc5Track28_60"
    INDEX 01 01:30:33
  TRACK 61 AUDIO
    TITLE "Disc5Track28_61"
    INDEX 01 01:32:65
  TRACK 62 AUDIO
    TITLE "Disc5Track28_62"
    INDEX 01 01:34:06
  TRACK 63 AUDIO
    TITLE "Disc5Track28_63"
    INDEX 01 01:35:72
  TRACK 64 AUDIO
    TITLE "Disc5Track28_64"
    INDEX 01 01:36:30
  TRACK 65 AUDIO
    TITLE "Disc5Track28_65"
    INDEX 01 01:37:47
  TRACK 66 AUDIO
    TITLE "Disc5Track28_66"
    INDEX 01 01:39:36
  TRACK 67 AUDIO
    TITLE "Disc5Track28_67"
    INDEX 01 01:40:57
  TRACK 68 AUDIO
    TITLE "Disc5Track28_68"
    INDEX 01 01:42:56
